<?xml version="1.0" encoding="UTF-8" standalone="no"?>
<!-- Created with Inkscape (http://www.inkscape.org/) -->

<svg
   xmlns:dc="http://purl.org/dc/elements/1.1/"
   xmlns:cc="http://creativecommons.org/ns#"
   xmlns:rdf="http://www.w3.org/1999/02/22-rdf-syntax-ns#"
   xmlns:svg="http://www.w3.org/2000/svg"
   xmlns="http://www.w3.org/2000/svg"
   xmlns:sodipodi="http://sodipodi.sourceforge.net/DTD/sodipodi-0.dtd"
   xmlns:inkscape="http://www.inkscape.org/namespaces/inkscape"
   version="1.1"
   id="svg2"
   xml:space="preserve"
   width="320.88934"
   height="427.556"
   viewBox="0 0 320.88934 427.556"
   sodipodi:docname="meroni.svg"
   inkscape:version="0.92.4 (5da689c313, 2019-01-14)"><metadata
     id="metadata8"><rdf:RDF><cc:Work
         rdf:about=""><dc:format>image/svg+xml</dc:format><dc:type
           rdf:resource="http://purl.org/dc/dcmitype/StillImage" /><dc:title></dc:title></cc:Work></rdf:RDF></metadata><defs
     id="defs6"><clipPath
       clipPathUnits="userSpaceOnUse"
       id="clipPath26"><path
         d="M 0,320.667 H 240.667 V 0 H 0 Z"
         id="path24"
         inkscape:connector-curvature="0" /></clipPath></defs><sodipodi:namedview
     pagecolor="#ffffff"
     bordercolor="#666666"
     borderopacity="1"
     objecttolerance="10"
     gridtolerance="10"
     guidetolerance="10"
     inkscape:pageopacity="0"
     inkscape:pageshadow="2"
     inkscape:window-width="1920"
     inkscape:window-height="986"
     id="namedview4"
     showgrid="false"
     inkscape:zoom="0.55197448"
     inkscape:cx="160.44467"
     inkscape:cy="213.778"
     inkscape:window-x="-11"
     inkscape:window-y="-11"
     inkscape:window-maximized="1"
     inkscape:current-layer="g10" /><g
     id="g10"
     inkscape:groupmode="layer"
     inkscape:label="logo_meroni_TECHNOLOGY_cyan_vert"
     transform="matrix(1.3333333,0,0,-1.3333333,0,427.556)"><g
       id="g12"
       transform="translate(11.9873,78.5908)"><path
         d="M 0,0 H 8.963 L 18.898,-15.983 28.836,0 h 8.963 v -37.8 h -8.207 v 24.678 L 18.953,-29.268 H 18.738 L 8.207,-13.284 V -37.8 H 0 Z"
         style="fill:#00adef;fill-opacity:1;fill-rule:nonzero;stroke:none"
         id="path14"
         inkscape:connector-curvature="0" /></g><g
       id="g16"
       transform="translate(58.8584,78.5908)"><path
         d="M 0,0 H 28.459 V -7.396 H 8.209 v -7.669 h 17.82 v -7.399 H 8.209 v -7.937 h 20.52 V -37.8 H 0 Z"
         style="fill:#00adef;fill-opacity:1;fill-rule:nonzero;stroke:none"
         id="path18"
         inkscape:connector-curvature="0" /></g><g
       id="g20"><g
         id="g22"
         clip-path="url(#clipPath26)"><g
           id="g28"
           transform="translate(111.7783,60.2314)"><path
             d="M 0,0 C 2.053,0 3.627,0.485 4.725,1.458 5.822,2.43 6.373,3.726 6.373,5.346 v 0.107 c 0,1.8 -0.578,3.151 -1.728,4.051 -1.153,0.899 -2.754,1.35 -4.807,1.35 H -8.424 V 0 Z M -16.74,18.359 H 0.541 c 4.787,0 8.459,-1.278 11.016,-3.834 2.16,-2.16 3.24,-5.04 3.24,-8.639 V 5.777 c 0,-3.059 -0.748,-5.553 -2.242,-7.478 -1.494,-1.927 -3.448,-3.34 -5.86,-4.239 l 9.235,-13.5 H 6.211 L -1.891,-7.345 H -1.998 -8.424 V -19.44 h -8.316 z"
             style="fill:#00adef;fill-opacity:1;fill-rule:nonzero;stroke:none"
             id="path30"
             inkscape:connector-curvature="0" /></g><g
           id="g32"
           transform="translate(152.5474,47.8105)"><path
             d="m 0,0 c 1.654,0 3.187,0.306 4.59,0.919 1.404,0.611 2.599,1.458 3.591,2.537 0.989,1.08 1.762,2.331 2.321,3.753 0.56,1.422 0.838,2.943 0.838,4.563 v 0.109 c 0,1.619 -0.278,3.149 -0.838,4.59 -0.559,1.439 -1.35,2.7 -2.375,3.779 -1.024,1.08 -2.242,1.936 -3.645,2.565 -1.404,0.63 -2.935,0.946 -4.588,0.946 -1.695,0 -3.234,-0.307 -4.619,-0.918 -1.385,-0.614 -2.574,-1.458 -3.564,-2.538 -0.989,-1.08 -1.764,-2.331 -2.321,-3.753 -0.56,-1.423 -0.839,-2.944 -0.839,-4.564 v -0.107 c 0,-1.62 0.279,-3.152 0.839,-4.591 0.557,-1.439 1.348,-2.699 2.375,-3.779 1.026,-1.08 2.231,-1.936 3.618,-2.566 C -3.231,0.315 -1.692,0 0,0 m -0.106,-7.668 c -2.916,0 -5.601,0.514 -8.047,1.539 -2.451,1.026 -4.564,2.412 -6.347,4.158 -1.781,1.746 -3.168,3.798 -4.158,6.157 -0.99,2.357 -1.485,4.886 -1.485,7.586 v 0.109 c 0,2.699 0.504,5.228 1.512,7.587 1.008,2.357 2.404,4.428 4.187,6.21 1.78,1.781 3.905,3.185 6.37,4.212 2.468,1.025 5.158,1.539 8.074,1.539 2.916,0 5.599,-0.514 8.045,-1.539 2.449,-1.027 4.564,-2.412 6.347,-4.159 1.78,-1.746 3.168,-3.798 4.157,-6.156 0.99,-2.358 1.484,-4.887 1.484,-7.587 v -0.107 c 0,-2.7 -0.504,-5.23 -1.512,-7.587 C 17.515,1.936 16.119,-0.135 14.336,-1.917 12.556,-3.698 10.431,-5.103 7.965,-6.129 5.498,-7.154 2.808,-7.668 -0.106,-7.668"
             style="fill:#00adef;fill-opacity:1;fill-rule:nonzero;stroke:none"
             id="path34"
             inkscape:connector-curvature="0" /></g><g
           id="g36"
           transform="translate(179.979,78.5908)"><path
             d="M 0,0 H 7.668 L 25.381,-23.273 V 0 h 8.207 V -37.8 H 26.515 L 8.209,-13.77 V -37.8 H 0 Z"
             style="fill:#00adef;fill-opacity:1;fill-rule:nonzero;stroke:none"
             id="path38"
             inkscape:connector-curvature="0" /></g><path
           d="m 223.016,78.591 h 8.316 v -37.8 h -8.316 z"
           style="fill:#00adef;fill-opacity:1;fill-rule:nonzero;stroke:none"
           id="path40"
           inkscape:connector-curvature="0" /><g
           id="g42"
           transform="translate(47.2266,231.3169)"><path
             d="m 0,0 c -3,0 -5.433,2.433 -5.433,5.433 0,3.001 2.433,5.433 5.433,5.433 3,0 5.433,-2.432 5.433,-5.433 C 5.433,2.433 3,0 0,0 M 132.54,79.827 H 15.31 c -29.03,0 -52.563,-23.533 -52.563,-52.563 0,0 -0.128,-2.978 0,-4.875 0.154,-2.285 0.776,-5.821 0.776,-5.821 l 31.366,-117.971 c 0.469,-1.753 -0.325,-3.489 -1.773,-3.877 -1.45,-0.388 -3.005,0.719 -3.475,2.471 l -9.423,35.166 -15.534,-0.005 v -39.001 c 0,-19.397 15.724,-35.121 35.121,-35.121 19.396,0 32.62,15.724 32.62,35.121 V -0.084 c 0,3.19 2.34,5.785 5.216,5.785 2.877,0 5.217,-2.595 5.217,-5.785 v -138.197 l 64.463,0.001 V -0.084 c 0,3.19 2.34,5.785 5.216,5.785 2.877,0 5.217,-2.595 5.217,-5.785 V -138.28 l 67.348,0.001 V 27.264 c 0,29.03 -23.532,52.563 -52.562,52.563"
             style="fill:#00adef;fill-opacity:1;fill-rule:evenodd;stroke:none"
             id="path44"
             inkscape:connector-curvature="0" /></g><g
           id="g46"
           transform="translate(18.4927,28.1865)"><path
             d="M 0,0 H -6.589 V 4.05 H 10.27 V 0 H 3.681 V -20.818 H 0 Z"
             style="fill:#00adef;fill-opacity:1;fill-rule:nonzero;stroke:none"
             id="path48"
             inkscape:connector-curvature="0" /></g><g
           id="g50"
           transform="translate(32.71,32.2363)"><path
             d="M 0,0 H 15.375 V -3.943 H 3.621 v -6.395 H 14.04 v -3.943 H 3.621 v -6.644 h 11.903 v -3.943 H 0 Z"
             style="fill:#00adef;fill-opacity:1;fill-rule:nonzero;stroke:none"
             id="path52"
             inkscape:connector-curvature="0" /></g><g
           id="g54"
           transform="translate(62.3628,6.9414)"><path
             d="m 0,0 c -1.524,0 -2.929,0.332 -4.215,0.995 -1.286,0.663 -2.402,1.568 -3.348,2.718 -0.945,1.148 -1.687,2.505 -2.226,4.067 -0.539,1.564 -0.807,3.234 -0.807,5.01 v 0.07 c 0,1.777 0.263,3.441 0.792,4.992 0.529,1.551 1.27,2.913 2.226,4.085 0.956,1.172 2.087,2.096 3.393,2.771 1.306,0.676 2.75,1.012 4.333,1.012 0.95,0 1.816,-0.095 2.598,-0.283 0.781,-0.19 1.499,-0.457 2.151,-0.799 0.654,-0.344 1.257,-0.753 1.811,-1.226 0.554,-0.475 1.079,-0.995 1.573,-1.563 L 5.937,18.616 c -0.832,0.923 -1.712,1.669 -2.642,2.238 -0.931,0.568 -1.989,0.852 -3.176,0.852 -0.99,0 -1.905,-0.23 -2.746,-0.692 -0.841,-0.462 -1.568,-1.09 -2.182,-1.883 -0.613,-0.794 -1.088,-1.723 -1.424,-2.789 -0.337,-1.066 -0.505,-2.202 -0.505,-3.41 V 12.86 c 0,-1.208 0.168,-2.35 0.505,-3.427 0.336,-1.079 0.811,-2.02 1.424,-2.825 0.614,-0.805 1.341,-1.439 2.182,-1.9 0.841,-0.462 1.756,-0.693 2.746,-0.693 1.266,0 2.355,0.29 3.265,0.87 0.91,0.58 1.81,1.368 2.701,2.363 L 8.43,4.405 C 7.896,3.719 7.336,3.109 6.753,2.576 6.169,2.043 5.541,1.581 4.868,1.19 4.195,0.8 3.458,0.503 2.657,0.303 1.855,0.102 0.969,0 0,0"
             style="fill:#00adef;fill-opacity:1;fill-rule:nonzero;stroke:none"
             id="path56"
             inkscape:connector-curvature="0" /></g><g
           id="g58"
           transform="translate(74.6807,32.2363)"><path
             d="m 0,0 h 3.621 v -10.338 h 9.973 V 0 h 3.622 v -24.868 h -3.622 v 10.48 H 3.621 v -10.48 H 0 Z"
             style="fill:#00adef;fill-opacity:1;fill-rule:nonzero;stroke:none"
             id="path60"
             inkscape:connector-curvature="0" /></g><g
           id="g62"
           transform="translate(97.3276,32.2363)"><path
             d="M 0,0 H 3.377 L 14.485,-17.194 V 0 h 3.621 V -24.868 H 15.055 L 3.621,-7.177 V -24.868 H 0 Z"
             style="fill:#00adef;fill-opacity:1;fill-rule:nonzero;stroke:none"
             id="path64"
             inkscape:connector-curvature="0" /></g><g
           id="g66"
           transform="translate(130.8389,10.9561)"><path
             d="M 0,0 C 1.024,0 1.966,0.231 2.823,0.693 3.68,1.154 4.414,1.782 5.025,2.576 5.634,3.369 6.113,4.299 6.458,5.364 6.802,6.431 6.976,7.567 6.976,8.775 v 0.071 c 0,1.208 -0.174,2.35 -0.518,3.428 -0.345,1.078 -0.828,2.013 -1.449,2.807 -0.62,0.793 -1.364,1.426 -2.231,1.9 -0.867,0.474 -1.813,0.71 -2.837,0.71 -1.025,0 -1.966,-0.23 -2.823,-0.692 -0.857,-0.462 -1.591,-1.09 -2.202,-1.883 -0.611,-0.794 -1.088,-1.722 -1.434,-2.789 -0.344,-1.065 -0.517,-2.202 -0.517,-3.41 V 8.846 c 0,-1.208 0.173,-2.351 0.517,-3.428 0.346,-1.078 0.829,-2.014 1.449,-2.807 0.62,-0.794 1.364,-1.426 2.232,-1.9 C -1.971,0.236 -1.025,0 0,0 m -0.059,-4.015 c -1.603,0 -3.068,0.338 -4.393,1.013 -1.326,0.675 -2.464,1.593 -3.414,2.754 -0.949,1.16 -1.692,2.516 -2.226,4.067 -0.534,1.551 -0.801,3.203 -0.801,4.956 v 0.071 c 0,1.753 0.267,3.404 0.801,4.956 0.534,1.551 1.286,2.913 2.256,4.086 0.969,1.172 2.117,2.101 3.443,2.788 1.326,0.686 2.79,1.029 4.393,1.029 1.603,0 3.067,-0.336 4.393,-1.012 1.325,-0.674 2.464,-1.592 3.413,-2.753 0.949,-1.16 1.692,-2.516 2.227,-4.067 0.535,-1.552 0.8,-3.203 0.8,-4.956 V 8.846 c 0,-1.753 -0.265,-3.405 -0.8,-4.955 C 9.498,2.339 8.746,0.978 7.777,-0.195 6.806,-1.367 5.66,-2.297 4.333,-2.984 3.008,-3.671 1.543,-4.015 -0.059,-4.015"
             style="fill:#00adef;fill-opacity:1;fill-rule:nonzero;stroke:none"
             id="path68"
             inkscape:connector-curvature="0" /></g><g
           id="g70"
           transform="translate(146.1851,32.2363)"><path
             d="m 0,0 h 3.621 v -20.925 h 10.923 v -3.943 l -14.544,0 z"
             style="fill:#00adef;fill-opacity:1;fill-rule:nonzero;stroke:none"
             id="path72"
             inkscape:connector-curvature="0" /></g><g
           id="g74"
           transform="translate(174.6196,10.9561)"><path
             d="M 0,0 C 1.024,0 1.966,0.231 2.822,0.693 3.68,1.154 4.413,1.782 5.024,2.576 5.635,3.369 6.112,4.299 6.458,5.364 6.803,6.431 6.976,7.567 6.976,8.775 v 0.071 c 0,1.208 -0.173,2.35 -0.518,3.428 -0.346,1.078 -0.828,2.013 -1.448,2.807 -0.621,0.793 -1.365,1.426 -2.232,1.9 -0.867,0.474 -1.813,0.71 -2.838,0.71 -1.024,0 -1.964,-0.23 -2.822,-0.692 -0.857,-0.462 -1.591,-1.09 -2.202,-1.883 -0.61,-0.794 -1.089,-1.722 -1.434,-2.789 -0.344,-1.065 -0.516,-2.202 -0.516,-3.41 V 8.846 c 0,-1.208 0.172,-2.351 0.516,-3.428 0.345,-1.078 0.829,-2.014 1.449,-2.807 0.621,-0.794 1.364,-1.426 2.232,-1.9 C -1.971,0.236 -1.024,0 0,0 m -0.06,-4.015 c -1.602,0 -3.067,0.338 -4.392,1.013 -1.326,0.675 -2.464,1.593 -3.413,2.754 -0.95,1.16 -1.693,2.516 -2.227,4.067 -0.534,1.551 -0.802,3.203 -0.802,4.956 v 0.071 c 0,1.753 0.268,3.404 0.802,4.956 0.534,1.551 1.286,2.913 2.256,4.086 0.969,1.172 2.117,2.101 3.443,2.788 1.326,0.686 2.79,1.029 4.393,1.029 1.603,0 3.067,-0.336 4.393,-1.012 1.326,-0.674 2.463,-1.592 3.414,-2.753 0.949,-1.16 1.691,-2.516 2.225,-4.067 0.535,-1.552 0.802,-3.203 0.802,-4.956 V 8.846 C 10.834,7.093 10.567,5.441 10.032,3.891 9.498,2.339 8.746,0.978 7.776,-0.195 6.807,-1.367 5.659,-2.297 4.334,-2.984 3.008,-3.671 1.544,-4.015 -0.06,-4.015"
             style="fill:#00adef;fill-opacity:1;fill-rule:nonzero;stroke:none"
             id="path76"
             inkscape:connector-curvature="0" /></g><g
           id="g78"
           transform="translate(199.8188,6.9414)"><path
             d="m 0,0 c -1.622,0 -3.097,0.326 -4.422,0.978 -1.326,0.651 -2.459,1.55 -3.398,2.7 -0.941,1.148 -1.668,2.498 -2.182,4.05 -0.516,1.55 -0.772,3.238 -0.772,5.062 v 0.07 c 0,1.729 0.264,3.375 0.793,4.939 0.528,1.563 1.27,2.93 2.225,4.103 0.956,1.172 2.092,2.102 3.408,2.788 1.316,0.687 2.755,1.03 4.319,1.03 0.91,0 1.736,-0.077 2.478,-0.23 0.742,-0.154 1.43,-0.373 2.063,-0.657 0.634,-0.284 1.232,-0.634 1.796,-1.048 0.564,-0.415 1.113,-0.894 1.647,-1.439 L 5.64,19.042 c -0.396,0.402 -0.801,0.77 -1.217,1.102 -0.415,0.331 -0.851,0.609 -1.306,0.835 -0.455,0.224 -0.955,0.402 -1.499,0.532 -0.545,0.13 -1.142,0.195 -1.796,0.195 -0.949,0 -1.836,-0.237 -2.656,-0.712 C -3.655,20.52 -4.368,19.885 -4.972,19.09 -5.575,18.295 -6.05,17.363 -6.396,16.296 -6.742,15.228 -6.915,14.101 -6.915,12.914 v -0.071 c 0,-1.281 0.167,-2.469 0.503,-3.56 0.336,-1.092 0.814,-2.029 1.436,-2.812 0.622,-0.784 1.362,-1.401 2.221,-1.851 0.859,-0.451 1.82,-0.677 2.887,-0.677 0.987,0 1.909,0.173 2.768,0.519 0.859,0.345 1.604,0.803 2.236,1.375 v 4.679 h -5.314 v 3.801 H 8.668 V 3.873 C 8.153,3.352 7.584,2.854 6.961,2.381 6.338,1.906 5.665,1.492 4.942,1.138 4.22,0.782 3.443,0.503 2.612,0.303 1.781,0.102 0.91,0 0,0"
             style="fill:#00adef;fill-opacity:1;fill-rule:nonzero;stroke:none"
             id="path80"
             inkscape:connector-curvature="0" /></g><g
           id="g82"
           transform="translate(219.4399,17.1729)"><path
             d="m 0,0 -8.252,15.063 h 4.304 L 1.87,4.05 7.747,15.063 h 4.185 L 3.681,0.106 V -9.805 H 0 Z"
             style="fill:#00adef;fill-opacity:1;fill-rule:nonzero;stroke:none"
             id="path84"
             inkscape:connector-curvature="0" /></g></g></g></g></svg>