<?xml version="1.0" standalone="no"?>
<!DOCTYPE svg PUBLIC "-//W3C//DTD SVG 20010904//EN"
 "http://www.w3.org/TR/2001/REC-SVG-20010904/DTD/svg10.dtd">
<svg version="1.0" xmlns="http://www.w3.org/2000/svg"
 width="492.000000pt" height="492.000000pt" viewBox="0 0 492.000000 492.000000"
 preserveAspectRatio="xMidYMid meet">
<metadata>
Created by potrace 1.11, written by Peter Selinger 2001-2013
</metadata>
<g transform="translate(0.000000,492.000000) scale(0.100000,-0.100000)"
fill="#000000" stroke="none">
<path d="M3017 3754 c-1 -1 -30 -5 -64 -8 -216 -22 -454 -169 -579 -356 -45
-66 -204 -373 -517 -995 -418 -830 -524 -981 -732 -1043 -123 -37 -129 -36
-213 48 -198 198 -272 504 -181 755 65 177 230 370 381 445 46 22 94 43 108
46 91 20 125 24 210 23 67 -1 127 -9 203 -28 125 -31 125 -31 71 68 -124 230
-328 385 -586 445 -99 23 -288 19 -390 -9 -137 -37 -214 -73 -323 -150 -174
-124 -311 -327 -372 -550 -47 -175 -36 -395 29 -562 101 -264 304 -455 567
-533 96 -28 115 -31 241 -35 58 -1 132 -9 165 -18 33 -8 105 -27 160 -41 264
-67 450 -94 618 -89 291 8 504 110 660 314 24 32 154 285 225 439 17 36 48
103 70 150 22 47 56 121 77 165 360 774 515 1055 665 1203 103 102 196 145
340 156 30 3 57 5 60 6 19 4 -238 76 -390 108 -174 38 -221 43 -378 46 -67 1
-123 1 -125 0z"/>
<path d="M3947 3601 c-17 -6 -16 -8 5 -27 184 -164 270 -344 271 -569 3 -364
-260 -685 -613 -751 -40 -7 -227 -7 -239 0 -4 3 -22 8 -40 11 -18 3 -59 15
-92 26 -33 12 -62 19 -64 17 -2 -2 2 -17 10 -32 45 -87 71 -132 82 -144 7 -7
13 -18 13 -23 0 -21 170 -178 240 -221 74 -46 198 -101 253 -112 15 -3 39 -9
55 -12 42 -10 189 -11 256 -2 105 13 120 16 177 36 232 82 437 259 543 471 34
68 89 211 81 211 -2 0 0 12 5 26 21 55 30 221 17 329 -32 274 -209 533 -462
675 -41 23 -161 67 -205 75 -14 3 -36 7 -50 11 -37 8 -222 12 -243 5z"/>
</g>
</svg>
