<?xml version="1.0" encoding="UTF-8" standalone="no"?>
<!-- Created with Inkscape (http://www.inkscape.org/) -->

<svg
   xmlns:osb="http://www.openswatchbook.org/uri/2009/osb"
   xmlns:dc="http://purl.org/dc/elements/1.1/"
   xmlns:cc="http://creativecommons.org/ns#"
   xmlns:rdf="http://www.w3.org/1999/02/22-rdf-syntax-ns#"
   xmlns:svg="http://www.w3.org/2000/svg"
   xmlns="http://www.w3.org/2000/svg"
   xmlns:xlink="http://www.w3.org/1999/xlink"
   xmlns:sodipodi="http://sodipodi.sourceforge.net/DTD/sodipodi-0.dtd"
   xmlns:inkscape="http://www.inkscape.org/namespaces/inkscape"
   width="69.178871mm"
   height="50.233925mm"
   viewBox="0 0 69.17887 50.233925"
   version="1.1"
   id="svg1217"
   inkscape:version="0.92.2 5c3e80d, 2017-08-06"
   sodipodi:docname="logos-iacopo.svg"
   inkscape:export-filename="C:\Users\ep490\Desktop\moebius.png"
   inkscape:export-xdpi="96"
   inkscape:export-ydpi="96">
  <defs
     id="defs1211">
    <linearGradient
       inkscape:collect="always"
       id="linearGradient1964">
      <stop
         style="stop-color:#008000;stop-opacity:1;"
         offset="0"
         id="stop1960" />
      <stop
         style="stop-color:#008000;stop-opacity:0;"
         offset="1"
         id="stop1962" />
    </linearGradient>
    <linearGradient
       inkscape:collect="always"
       id="linearGradient1753">
      <stop
         style="stop-color:#008000;stop-opacity:1;"
         offset="0"
         id="stop1749" />
      <stop
         style="stop-color:#4d4d4d;stop-opacity:1"
         offset="1"
         id="stop1751" />
    </linearGradient>
    <linearGradient
       id="linearGradient1747"
       inkscape:collect="always">
      <stop
         id="stop1743"
         offset="0"
         style="stop-color:#ff0000;stop-opacity:1;" />
      <stop
         id="stop1745"
         offset="1"
         style="stop-color:#4d4d4d;stop-opacity:1" />
    </linearGradient>
    <pattern
       inkscape:collect="always"
       xlink:href="#Strips1_1"
       id="pattern2380"
       patternTransform="matrix(5.6754478,0,0,5.6754478,2.307369,37.145294)" />
    <linearGradient
       id="linearGradient2339"
       osb:paint="solid">
      <stop
         style="stop-color:#000000;stop-opacity:1;"
         offset="0"
         id="stop2337" />
    </linearGradient>
    <linearGradient
       inkscape:collect="always"
       id="linearGradient2552">
      <stop
         style="stop-color:#ff0000;stop-opacity:1;"
         offset="0"
         id="stop2548" />
      <stop
         style="stop-color:#ff0000;stop-opacity:0;"
         offset="1"
         id="stop2550" />
    </linearGradient>
    <pattern
       inkscape:stockid="Stripes 1:1"
       id="Strips1_1"
       patternTransform="translate(0,0) scale(10,10)"
       height="1"
       width="2"
       patternUnits="userSpaceOnUse"
       inkscape:collect="always">
      <rect
         id="rect1692"
         height="2"
         width="1"
         y="-0.5"
         x="0"
         style="fill:black;stroke:none" />
    </pattern>
    <linearGradient
       inkscape:collect="always"
       id="linearGradient859">
      <stop
         style="stop-color:#ff0000;stop-opacity:1;"
         offset="0"
         id="stop855" />
      <stop
         style="stop-color:#ff0000;stop-opacity:0;"
         offset="1"
         id="stop857" />
    </linearGradient>
    <meshgradient
       inkscape:collect="always"
       id="meshgradient2434"
       gradientUnits="userSpaceOnUse"
       x="91.176353"
       y="63.817131"
       gradientTransform="matrix(0.56754478,0,0,0.56754478,2.307369,37.145294)">
      <meshrow
         id="meshrow2436">
        <meshpatch
           id="meshpatch2438">
          <stop
             path="c 6.57034,0  13.1407,0  19.711,0"
             style="stop-color:#ffffff;stop-opacity:1"
             id="stop2440" />
          <stop
             path="c 0,6.98715  0,13.9743  0,20.9615"
             style="stop-color:#ff0000;stop-opacity:1"
             id="stop2442" />
          <stop
             path="c -6.57034,0  -13.1407,0  -19.711,0"
             style="stop-color:#ffffff;stop-opacity:1"
             id="stop2444" />
          <stop
             path="c 0,-6.98715  0,-13.9743  0,-20.9615"
             style="stop-color:#ff0000;stop-opacity:1"
             id="stop2446" />
        </meshpatch>
      </meshrow>
    </meshgradient>
    <linearGradient
       inkscape:collect="always"
       xlink:href="#linearGradient1747"
       id="linearGradient2538"
       x1="55.52821"
       y1="79.240067"
       x2="75.198029"
       y2="79.240067"
       gradientUnits="userSpaceOnUse"
       gradientTransform="matrix(0.56754478,0,0,0.56754478,2.307369,37.145294)" />
    <linearGradient
       inkscape:collect="always"
       xlink:href="#linearGradient1753"
       id="linearGradient2546"
       x1="66.302452"
       y1="76.792389"
       x2="99.751472"
       y2="76.792389"
       gradientUnits="userSpaceOnUse"
       gradientTransform="matrix(0.56754478,0,0,0.56754478,2.307369,37.145294)" />
    <linearGradient
       inkscape:collect="always"
       xlink:href="#linearGradient1747"
       id="linearGradient2554"
       x1="91.176353"
       y1="74.297859"
       x2="110.88738"
       y2="74.297859"
       gradientUnits="userSpaceOnUse"
       gradientTransform="matrix(0.56754478,0,0,0.56754478,2.307369,37.145294)" />
    <linearGradient
       inkscape:collect="always"
       xlink:href="#linearGradient1747"
       id="linearGradient2538-8"
       x1="55.52821"
       y1="79.240067"
       x2="75.198029"
       y2="79.240067"
       gradientUnits="userSpaceOnUse"
       gradientTransform="matrix(0.56754478,0,0,0.56754478,2.3064,53.956023)" />
    <pattern
       inkscape:collect="always"
       xlink:href="#Strips1_1-4"
       id="pattern2380-9"
       patternTransform="matrix(5.6754478,0,0,5.6754478,2.3064,53.956023)" />
    <pattern
       inkscape:stockid="Stripes 1:1"
       id="Strips1_1-4"
       patternTransform="translate(0,0) scale(10,10)"
       height="1"
       width="2"
       patternUnits="userSpaceOnUse"
       inkscape:collect="always">
      <rect
         id="rect1692-7"
         height="2"
         width="1"
         y="-0.5"
         x="0"
         style="fill:black;stroke:none" />
    </pattern>
    <linearGradient
       inkscape:collect="always"
       xlink:href="#linearGradient1753"
       id="linearGradient2546-9"
       x1="66.302452"
       y1="76.792389"
       x2="99.751472"
       y2="76.792389"
       gradientUnits="userSpaceOnUse"
       gradientTransform="matrix(0.56754478,0,0,0.56754478,2.3064,53.956023)" />
    <linearGradient
       inkscape:collect="always"
       xlink:href="#linearGradient1747"
       id="linearGradient2554-9"
       x1="91.176353"
       y1="74.297859"
       x2="110.88738"
       y2="74.297859"
       gradientUnits="userSpaceOnUse"
       gradientTransform="matrix(0.56754478,0,0,0.56754478,2.3064,53.956023)" />
    <meshgradient
       inkscape:collect="always"
       id="meshgradient1029"
       gradientUnits="userSpaceOnUse"
       x="91.176353"
       y="63.817131"
       gradientTransform="matrix(0.56754478,0,0,0.56754478,2.3064,53.956023)">
      <meshrow
         id="meshrow1041">
        <meshpatch
           id="meshpatch1039">
          <stop
             id="stop1031"
             style="stop-color:#ffffff;stop-opacity:1"
             path="c 6.57034,0  13.1407,0  19.711,0" />
          <stop
             id="stop1033"
             style="stop-color:#ff0000;stop-opacity:1"
             path="c 0,6.98715  0,13.9743  0,20.9615" />
          <stop
             id="stop1035"
             style="stop-color:#ffffff;stop-opacity:1"
             path="c -6.57034,0  -13.1407,0  -19.711,0" />
          <stop
             id="stop1037"
             style="stop-color:#ff0000;stop-opacity:1"
             path="c 0,-6.98715  0,-13.9743  0,-20.9615" />
        </meshpatch>
      </meshrow>
    </meshgradient>
    <linearGradient
       inkscape:collect="always"
       xlink:href="#linearGradient859"
       id="linearGradient2538-8-9"
       x1="55.52821"
       y1="79.240067"
       x2="75.198029"
       y2="79.240067"
       gradientUnits="userSpaceOnUse"
       gradientTransform="matrix(0.56754478,0,0,0.56754478,2.399925,70.766754)" />
    <pattern
       inkscape:collect="always"
       xlink:href="#Strips1_1-4-7"
       id="pattern2380-9-1"
       patternTransform="matrix(5.6754478,0,0,5.6754478,2.399925,70.766754)" />
    <pattern
       inkscape:stockid="Stripes 1:1"
       id="Strips1_1-4-7"
       patternTransform="translate(0,0) scale(10,10)"
       height="1"
       width="2"
       patternUnits="userSpaceOnUse"
       inkscape:collect="always">
      <rect
         id="rect1692-7-6"
         height="2"
         width="1"
         y="-0.5"
         x="0"
         style="fill:black;stroke:none" />
    </pattern>
    <linearGradient
       inkscape:collect="always"
       xlink:href="#linearGradient2552"
       id="linearGradient2554-9-7"
       x1="91.176353"
       y1="74.297859"
       x2="110.88738"
       y2="74.297859"
       gradientUnits="userSpaceOnUse"
       gradientTransform="matrix(0.56754478,0,0,0.56754478,2.399925,70.766754)" />
    <meshgradient
       inkscape:collect="always"
       id="meshgradient1204"
       gradientUnits="userSpaceOnUse"
       x="91.176353"
       y="63.817131"
       gradientTransform="matrix(0.56754478,0,0,0.56754478,2.399925,70.766754)">
      <meshrow
         id="meshrow1216">
        <meshpatch
           id="meshpatch1214">
          <stop
             path="c 6.57034,0  13.1407,0  19.711,0"
             style="stop-color:#ffffff;stop-opacity:1"
             id="stop1206" />
          <stop
             path="c 0,6.98715  0,13.9743  0,20.9615"
             style="stop-color:#ff0000;stop-opacity:1"
             id="stop1208" />
          <stop
             path="c -6.57034,0  -13.1407,0  -19.711,0"
             style="stop-color:#ffffff;stop-opacity:1"
             id="stop1210" />
          <stop
             path="c 0,-6.98715  0,-13.9743  0,-20.9615"
             style="stop-color:#ff0000;stop-opacity:1"
             id="stop1212" />
        </meshpatch>
      </meshrow>
    </meshgradient>
    <linearGradient
       inkscape:collect="always"
       xlink:href="#linearGradient1753"
       id="linearGradient1958"
       x1="66.302452"
       y1="76.792389"
       x2="99.751472"
       y2="76.792389"
       gradientUnits="userSpaceOnUse"
       gradientTransform="matrix(0.56754478,0,0,0.56754478,2.399925,70.766754)" />
    <linearGradient
       inkscape:collect="always"
       xlink:href="#linearGradient1964"
       id="linearGradient1966"
       x1="66.302452"
       y1="76.792389"
       x2="99.751472"
       y2="76.792389"
       gradientUnits="userSpaceOnUse"
       gradientTransform="matrix(0.56754478,0,0,0.56754478,2.399925,70.766754)" />
  </defs>
  <sodipodi:namedview
     id="base"
     pagecolor="#ffffff"
     bordercolor="#666666"
     borderopacity="1.0"
     inkscape:pageopacity="0.0"
     inkscape:pageshadow="2"
     inkscape:zoom="2.8"
     inkscape:cx="105.14576"
     inkscape:cy="98.268534"
     inkscape:document-units="mm"
     inkscape:current-layer="layer1"
     showgrid="false"
     inkscape:window-width="1440"
     inkscape:window-height="855"
     inkscape:window-x="0"
     inkscape:window-y="1"
     inkscape:window-maximized="1"
     inkscape:pagecheckerboard="true"
     fit-margin-top="0"
     fit-margin-left="0"
     fit-margin-right="0"
     fit-margin-bottom="0">
    <inkscape:grid
       type="xygrid"
       id="grid6358"
       originx="37.669449"
       originy="26.902926" />
  </sodipodi:namedview>
  <metadata
     id="metadata1214">
    <rdf:RDF>
      <cc:Work
         rdf:about="">
        <dc:format>image/svg+xml</dc:format>
        <dc:type
           rdf:resource="http://purl.org/dc/dcmitype/StillImage" />
        <dc:title></dc:title>
      </cc:Work>
    </rdf:RDF>
  </metadata>
  <g
     inkscape:label="Layer 1"
     inkscape:groupmode="layer"
     id="layer1"
     transform="translate(-33.821146,-72.422155)">
    <flowRoot
       xml:space="preserve"
       id="flowRoot2556-9"
       style="font-style:normal;font-weight:normal;font-size:26.66666794px;line-height:1.25;font-family:sans-serif;letter-spacing:0px;word-spacing:0px;fill:#000000;fill-opacity:1;stroke:none"
       transform="matrix(0.15016289,0,0,0.15016289,33.891281,89.146234)"><flowRegion
         id="flowRegion2558-2"
         style="font-size:26.66666794px"><rect
           id="rect2560-2"
           width="100.71429"
           height="110.71429"
           x="210.35715"
           y="0.26981863"
           style="font-size:26.66666794px" /></flowRegion><flowPara
         id="flowPara2562-3">Science</flowPara></flowRoot>    <flowRoot
       xml:space="preserve"
       id="flowRoot2556-9-4"
       style="font-style:normal;font-weight:normal;font-size:26.66666794px;line-height:1.25;font-family:sans-serif;letter-spacing:0px;word-spacing:0px;fill:#000000;fill-opacity:1;stroke:none"
       transform="matrix(0.15016289,0,0,0.15016289,33.950939,105.84309)"><flowRegion
         id="flowRegion2558-2-5"
         style="font-size:26.66666794px"><rect
           id="rect2560-2-1"
           width="100.71429"
           height="110.71429"
           x="210.35715"
           y="0.26981863"
           style="font-size:26.66666794px" /></flowRegion><flowPara
         id="flowPara2562-3-7">Science</flowPara></flowRoot>    <path
       inkscape:connector-curvature="0"
       id="path1781"
       d="m 38.717337,88.021629 c -0.817427,-0.116148 -1.580244,-0.39032 -2.242351,-0.805947 -1.329774,-0.834743 -2.261938,-2.226237 -2.552951,-3.810931 -0.08689,-0.473153 -0.11492,-1.15033 -0.06755,-1.632107 0.161999,-1.647805 1.028193,-3.257751 2.304562,-4.283366 0.754765,-0.606486 1.633745,-1.019118 2.559594,-1.201592 0.472493,-0.09312 0.524534,-0.09761 1.117395,-0.09646 0.610855,0.0012 0.789733,0.01992 1.25494,0.131415 0.789637,0.189249 1.568974,0.572367 2.205362,1.084147 0.584681,0.470194 1.093252,1.09514 1.426078,1.752402 0.10717,0.21164 0.265716,0.588219 0.253002,0.600934 -0.0033,0.0033 -0.120082,-0.02907 -0.259475,-0.07199 -0.325484,-0.1002 -0.70708,-0.19401 -1.014895,-0.249497 -0.220643,-0.03977 -0.299486,-0.0439 -0.840745,-0.04401 -0.656419,-1.33e-4 -0.777904,0.01407 -1.230651,0.143878 -1.066182,0.305676 -1.973404,1.058344 -2.695284,2.236113 -0.332587,0.542623 -0.518834,1.007883 -0.622195,1.554285 -0.195622,1.034124 0.01964,2.269969 0.55656,3.195273 0.273739,0.471753 0.705093,0.965413 1.162773,1.330736 0.153688,0.122672 0.185825,0.15642 0.159645,0.167642 -0.01803,0.0077 -0.314349,0.01674 -0.65849,0.02003 -0.466641,0.0045 -0.673914,-9.08e-4 -0.81532,-0.02096 z"
       style="fill:url(#linearGradient2538);fill-opacity:1;stroke:url(#pattern2380);stroke-width:0.01896093;stroke-opacity:0" />
    <path
       inkscape:connector-curvature="0"
       id="path1791"
       d="m 44.255989,88.965445 c -0.724,-0.06994 -1.890842,-0.301224 -3.121093,-0.618646 -0.634003,-0.163584 -1.161114,-0.305805 -1.171359,-0.316049 -0.01025,-0.01027 0.09822,-0.03332 0.24103,-0.05119 0.955535,-0.119922 1.462833,-0.343466 2.000098,-0.881352 0.847011,-0.84799 1.563909,-2.121301 4.577743,-8.130693 0.991129,-1.97625 1.928098,-3.784703 2.082148,-4.018783 0.859242,-1.305605 2.086996,-2.129245 3.602477,-2.416727 0.583114,-0.110615 1.941046,-0.110085 2.695211,0.0011 0.915245,0.134875 2.243329,0.450214 3.348338,0.795026 l 0.402225,0.12551 -0.536296,0.02817 c -0.862929,0.04533 -1.473057,0.31774 -2.100137,0.937658 -1.054067,1.042037 -1.902234,2.609462 -4.895647,9.047204 -0.851055,1.830315 -1.450674,3.050712 -1.635071,3.327841 -0.539128,0.810261 -1.345985,1.466165 -2.237,1.818474 -0.864131,0.341684 -2.042636,0.46941 -3.252667,0.352525 z"
       style="fill:url(#linearGradient2546);fill-opacity:1;stroke:#000000;stroke-width:0.05362961;stroke-opacity:0" />
    <path
       inkscape:connector-curvature="0"
       id="path1789"
       d="m 58.330358,85.190908 c -1.369582,-0.244879 -2.669651,-1.041002 -3.500451,-2.143554 -0.294176,-0.390398 -0.798059,-1.317965 -0.744857,-1.371162 0.0143,-0.01428 0.144008,0.02472 0.28829,0.08667 0.771469,0.331233 1.912393,0.432439 2.702478,0.239726 1.237673,-0.301886 2.239472,-1.009995 2.933959,-2.073832 0.830977,-1.272937 1.024822,-2.758193 0.547358,-4.193889 -0.237989,-0.715618 -0.524894,-1.165768 -1.122604,-1.761371 l -0.521724,-0.519878 0.297169,-0.03713 c 0.719806,-0.08993 1.752158,0.06641 2.531624,0.383389 1.669853,0.679073 2.967,2.269476 3.354866,4.113322 0.256757,1.220574 0.08913,2.586931 -0.464343,3.784914 -0.776833,1.681452 -2.255548,2.927635 -4.025777,3.392721 -0.501335,0.13171 -1.783688,0.188096 -2.275988,0.100074 z"
       style="fill:url(#linearGradient2554);fill-opacity:1;stroke:url(#meshgradient2434);stroke-width:0.05362961;stroke-opacity:0" />
    <flowRoot
       xml:space="preserve"
       id="flowRoot2556"
       style="font-style:normal;font-weight:normal;font-size:26.66666794px;line-height:1.25;font-family:sans-serif;letter-spacing:0px;word-spacing:0px;fill:#000000;fill-opacity:1;stroke:none"
       transform="matrix(0.15016289,0,0,0.15016289,33.831622,72.449373)"><flowRegion
         id="flowRegion2558"
         style="font-size:26.66666794px"><rect
           id="rect2560"
           width="100.71429"
           height="110.71429"
           x="210.35715"
           y="0.26981863"
           style="font-size:26.66666794px" /></flowRegion><flowPara
         id="flowPara2562">Science</flowPara></flowRoot>    <text
       xml:space="preserve"
       style="font-style:normal;font-weight:normal;font-size:6.33116484px;line-height:1;font-family:sans-serif;letter-spacing:0px;word-spacing:0px;fill:#666666;fill-opacity:1;fill-rule:nonzero;stroke:none;stroke-width:0.15827912;paint-order:stroke fill markers"
       x="64.975288"
       y="80.873077"
       id="text2566"
       transform="scale(1.024994,0.97561547)"><tspan
         sodipodi:role="line"
         x="64.975288"
         y="80.873077"
         style="font-style:normal;font-variant:normal;font-weight:bold;font-stretch:normal;font-size:4.93888903px;line-height:1;font-family:'Noto Sans';-inkscape-font-specification:'Noto Sans Bold';fill:#666666;fill-opacity:1;fill-rule:nonzero;stroke-width:0.15827912;paint-order:stroke fill markers"
         id="tspan2568">SPP Italy 2019</tspan><tspan
         sodipodi:role="line"
         x="64.975288"
         y="87.204239"
         style="font-style:normal;font-variant:normal;font-weight:bold;font-stretch:normal;font-size:2.99861121px;line-height:1;font-family:'Noto Sans';-inkscape-font-specification:'Noto Sans Bold';fill:#666666;fill-opacity:1;fill-rule:nonzero;stroke-width:0.15827912;paint-order:stroke fill markers"
         id="tspan2574">Science | Policy | Public</tspan></text>
    <flowRoot
       xml:space="preserve"
       id="flowRoot2556-9-2"
       style="font-style:normal;font-weight:normal;font-size:26.66666794px;line-height:1.25;font-family:sans-serif;letter-spacing:0px;word-spacing:0px;fill:#000000;fill-opacity:1;stroke:none"
       transform="matrix(0.15016289,0,0,0.15016289,33.890312,105.95696)"><flowRegion
         id="flowRegion2558-2-55"
         style="font-size:26.66666794px"><rect
           id="rect2560-2-7"
           width="100.71429"
           height="110.71429"
           x="210.35715"
           y="0.26981863"
           style="font-size:26.66666794px" /></flowRegion><flowPara
         id="flowPara2562-3-5">Science</flowPara></flowRoot>    <flowRoot
       xml:space="preserve"
       id="flowRoot2556-9-4-1"
       style="font-style:normal;font-weight:normal;font-size:26.66666794px;line-height:1.25;font-family:sans-serif;letter-spacing:0px;word-spacing:0px;fill:#000000;fill-opacity:1;stroke:none"
       transform="matrix(0.15016289,0,0,0.15016289,33.94997,122.65382)"><flowRegion
         id="flowRegion2558-2-5-6"
         style="font-size:26.66666794px"><rect
           id="rect2560-2-1-9"
           width="100.71429"
           height="110.71429"
           x="210.35715"
           y="0.26981863"
           style="font-size:26.66666794px" /></flowRegion><flowPara
         id="flowPara2562-3-7-8">Science</flowPara></flowRoot>    <path
       inkscape:connector-curvature="0"
       id="path1781-0"
       d="m 38.716368,104.83236 c -0.817427,-0.11615 -1.580244,-0.39032 -2.242351,-0.80595 -1.329774,-0.83474 -2.261938,-2.22624 -2.552951,-3.81093 -0.08689,-0.473153 -0.11492,-1.15033 -0.06755,-1.632107 0.161999,-1.647805 1.028193,-3.257751 2.304562,-4.283366 0.754765,-0.606486 1.633745,-1.019118 2.559594,-1.201592 0.472493,-0.09312 0.524534,-0.09762 1.117395,-0.09646 0.610855,0.0012 0.789733,0.01992 1.25494,0.131415 0.789637,0.189249 1.568974,0.572367 2.205362,1.084147 0.584681,0.470194 1.093252,1.09514 1.426078,1.752402 0.10717,0.21164 0.265716,0.588219 0.253002,0.600934 -0.0033,0.0033 -0.120082,-0.02908 -0.259475,-0.07199 -0.325484,-0.1002 -0.70708,-0.19401 -1.014895,-0.249497 -0.220643,-0.03977 -0.299486,-0.0439 -0.840745,-0.04401 -0.656419,-1.33e-4 -0.777904,0.01407 -1.230651,0.143878 -1.066182,0.305676 -1.973404,1.058344 -2.695284,2.236113 -0.332587,0.542623 -0.518834,1.007883 -0.622195,1.554283 -0.195622,1.03413 0.01964,2.26997 0.55656,3.19528 0.273739,0.47175 0.705093,0.96541 1.162773,1.33073 0.153688,0.12267 0.185825,0.15642 0.159645,0.16764 -0.01803,0.008 -0.314349,0.0168 -0.65849,0.02 -0.466641,0.004 -0.673914,-9.1e-4 -0.81532,-0.021 z"
       style="fill:url(#linearGradient2538-8);fill-opacity:1;stroke:url(#pattern2380-9);stroke-width:0.01896093;stroke-opacity:0" />
    <path
       inkscape:connector-curvature="0"
       id="path1791-7"
       d="m 44.25502,105.77617 c -0.724,-0.0699 -1.890842,-0.30122 -3.121093,-0.61864 -0.634003,-0.16359 -1.161114,-0.30581 -1.171359,-0.31605 -0.01024,-0.0103 0.09822,-0.0333 0.24103,-0.0512 0.955535,-0.11993 1.462833,-0.34347 2.000098,-0.88136 0.847011,-0.84799 1.563909,-2.1213 4.577743,-8.130689 0.991129,-1.97625 1.928098,-3.784703 2.082148,-4.018783 0.859242,-1.305605 2.086996,-2.129245 3.602477,-2.416727 0.583114,-0.110615 1.941046,-0.110085 2.695211,0.0011 0.915245,0.134875 2.243329,0.450214 3.348338,0.795026 l 0.402225,0.12551 -0.536296,0.02817 c -0.862929,0.04533 -1.473057,0.31774 -2.100137,0.937658 -1.054067,1.042037 -1.902234,2.609462 -4.895647,9.047205 -0.851055,1.83031 -1.450674,3.05071 -1.635071,3.32784 -0.539128,0.81026 -1.345985,1.46617 -2.237,1.81847 -0.864131,0.34169 -2.042636,0.46942 -3.252667,0.35253 z"
       style="fill:url(#linearGradient2546-9);fill-opacity:1;stroke:#000000;stroke-width:0.05362961;stroke-opacity:0" />
    <path
       inkscape:connector-curvature="0"
       id="path1789-1"
       d="m 58.329389,102.00164 c -1.369582,-0.24488 -2.669651,-1.041 -3.500451,-2.143557 -0.294176,-0.390398 -0.798059,-1.317965 -0.744857,-1.371162 0.0143,-0.01428 0.144008,0.02472 0.28829,0.08667 0.771469,0.331233 1.912393,0.432439 2.702478,0.239726 1.237673,-0.301886 2.239472,-1.009995 2.933959,-2.073832 0.830977,-1.272937 1.024822,-2.758193 0.547358,-4.193889 -0.237989,-0.715618 -0.524894,-1.165768 -1.122604,-1.761371 l -0.521724,-0.519878 0.297169,-0.03713 c 0.719806,-0.08993 1.752158,0.06641 2.531624,0.383389 1.669853,0.679073 2.967,2.269476 3.354866,4.113322 0.256757,1.220574 0.08913,2.586931 -0.464343,3.784914 -0.776833,1.681448 -2.255548,2.927638 -4.025777,3.392718 -0.501335,0.13171 -1.783688,0.1881 -2.275988,0.10008 z"
       style="fill:url(#linearGradient2554-9);fill-opacity:1;stroke:url(#meshgradient1029);stroke-width:0.05362961;stroke-opacity:0" />
    <flowRoot
       xml:space="preserve"
       id="flowRoot2556-4"
       style="font-style:normal;font-weight:normal;font-size:26.66666794px;line-height:1.25;font-family:sans-serif;letter-spacing:0px;word-spacing:0px;fill:#000000;fill-opacity:1;stroke:none"
       transform="matrix(0.15016289,0,0,0.15016289,33.830653,89.260102)"><flowRegion
         id="flowRegion2558-1"
         style="font-size:26.66666794px"><rect
           id="rect2560-8"
           width="100.71429"
           height="110.71429"
           x="210.35715"
           y="0.26981863"
           style="font-size:26.66666794px" /></flowRegion><flowPara
         id="flowPara2562-4">Science</flowPara></flowRoot>    <text
       xml:space="preserve"
       style="font-style:normal;font-weight:normal;font-size:6.33116484px;line-height:1;font-family:sans-serif;letter-spacing:0px;word-spacing:0px;fill:#666666;fill-opacity:1;fill-rule:nonzero;stroke:none;stroke-width:0.15827912;paint-order:stroke fill markers"
       x="64.974342"
       y="98.103973"
       id="text2566-5"
       transform="scale(1.024994,0.97561547)"><tspan
         sodipodi:role="line"
         x="64.974342"
         y="98.103973"
         style="font-style:normal;font-variant:normal;font-weight:bold;font-stretch:normal;font-size:4.93888903px;line-height:1;font-family:'Noto Sans';-inkscape-font-specification:'Noto Sans Bold';fill:#666666;fill-opacity:1;fill-rule:nonzero;stroke-width:0.15827912;paint-order:stroke fill markers"
         id="tspan2568-4">SPP Italy 2019</tspan><tspan
         sodipodi:role="line"
         x="64.974342"
         y="104.43513"
         style="font-style:normal;font-variant:normal;font-weight:bold;font-stretch:normal;font-size:2.99861121px;line-height:1;font-family:'Noto Sans';-inkscape-font-specification:'Noto Sans Bold';fill:#666666;fill-opacity:1;fill-rule:nonzero;stroke-width:0.15827912;paint-order:stroke fill markers"
         id="tspan2574-9">Science | Policy | Public</tspan></text>
    <flowRoot
       xml:space="preserve"
       id="flowRoot2556-9-2-1"
       style="font-style:normal;font-weight:normal;font-size:26.66666794px;line-height:1.25;font-family:sans-serif;letter-spacing:0px;word-spacing:0px;fill:#000000;fill-opacity:1;stroke:none"
       transform="matrix(0.15016289,0,0,0.15016289,33.983837,122.76769)"><flowRegion
         id="flowRegion2558-2-55-5"
         style="font-size:26.66666794px"><rect
           id="rect2560-2-7-5"
           width="100.71429"
           height="110.71429"
           x="210.35715"
           y="0.26981863"
           style="font-size:26.66666794px" /></flowRegion><flowPara
         id="flowPara2562-3-5-7">Science</flowPara></flowRoot>    <flowRoot
       xml:space="preserve"
       id="flowRoot2556-9-4-1-0"
       style="font-style:normal;font-weight:normal;font-size:26.66666794px;line-height:1.25;font-family:sans-serif;letter-spacing:0px;word-spacing:0px;fill:#000000;fill-opacity:1;stroke:none"
       transform="matrix(0.15016289,0,0,0.15016289,34.043495,139.46455)"><flowRegion
         id="flowRegion2558-2-5-6-0"
         style="font-size:26.66666794px"><rect
           id="rect2560-2-1-9-5"
           width="100.71429"
           height="110.71429"
           x="210.35715"
           y="0.26981863"
           style="font-size:26.66666794px" /></flowRegion><flowPara
         id="flowPara2562-3-7-8-4">Science</flowPara></flowRoot>    <path
       inkscape:connector-curvature="0"
       id="path1781-0-8"
       d="m 38.809893,121.64309 c -0.817427,-0.11615 -1.580244,-0.39032 -2.242351,-0.80595 -1.329774,-0.83474 -2.261938,-2.22624 -2.552951,-3.81093 -0.08689,-0.47315 -0.11492,-1.15033 -0.06755,-1.63211 0.161999,-1.6478 1.028193,-3.25775 2.304562,-4.28336 0.754765,-0.60649 1.633745,-1.01912 2.559594,-1.20159 0.472493,-0.0931 0.524534,-0.0976 1.117395,-0.0965 0.610855,10e-4 0.789733,0.0199 1.25494,0.13142 0.789637,0.18925 1.568974,0.57237 2.205362,1.08415 0.584681,0.47019 1.093252,1.09514 1.426078,1.7524 0.10717,0.21164 0.265716,0.58822 0.253002,0.60093 -0.0033,0.003 -0.120082,-0.0291 -0.259475,-0.072 -0.325484,-0.1002 -0.70708,-0.19401 -1.014895,-0.24949 -0.220643,-0.0398 -0.299486,-0.0439 -0.840745,-0.044 -0.656419,-1.3e-4 -0.777904,0.0141 -1.230651,0.14388 -1.066182,0.30567 -1.973404,1.05834 -2.695284,2.23611 -0.332587,0.54262 -0.518834,1.00788 -0.622195,1.55428 -0.195622,1.03413 0.01964,2.26997 0.55656,3.19528 0.273739,0.47175 0.705093,0.96541 1.162773,1.33073 0.153688,0.12268 0.185825,0.15642 0.159645,0.16764 -0.01803,0.008 -0.314349,0.0168 -0.65849,0.02 -0.466641,0.004 -0.673914,-9.1e-4 -0.81532,-0.021 z"
       style="fill:url(#linearGradient2538-8-9);fill-opacity:1;stroke:url(#pattern2380-9-1);stroke-width:0.01896093;stroke-opacity:0" />
    <path
       inkscape:connector-curvature="0"
       id="path1791-7-5"
       d="m 44.348545,122.58691 c -0.724,-0.0699 -1.890842,-0.30123 -3.121093,-0.61865 -0.634003,-0.16358 -1.161114,-0.30581 -1.171359,-0.31605 -0.01024,-0.0103 0.09822,-0.0333 0.24103,-0.0512 0.955535,-0.11992 1.462833,-0.34347 2.000098,-0.88136 0.847011,-0.84798 1.563909,-2.1213 4.577743,-8.13069 0.991129,-1.97625 1.928098,-3.7847 2.082148,-4.01878 0.859242,-1.30561 2.086996,-2.12925 3.602477,-2.41673 0.583114,-0.11061 1.941046,-0.11008 2.695211,10e-4 0.915245,0.13487 2.243329,0.45021 3.348338,0.79503 l 0.402225,0.12551 -0.536296,0.0282 c -0.862929,0.0453 -1.473057,0.31774 -2.100137,0.93766 -1.054067,1.04203 -1.902234,2.60946 -4.895647,9.0472 -0.851055,1.83032 -1.450674,3.05071 -1.635071,3.32784 -0.539128,0.81026 -1.345985,1.46617 -2.237,1.81848 -0.864131,0.34168 -2.042636,0.46941 -3.252667,0.35252 z"
       style="opacity:1;fill:url(#linearGradient1966);fill-opacity:1;stroke:url(#linearGradient1958);stroke-width:0.05362961;stroke-opacity:0" />
    <path
       inkscape:connector-curvature="0"
       id="path1789-1-2"
       d="m 58.422914,118.81237 c -1.369582,-0.24488 -2.669651,-1.041 -3.500451,-2.14356 -0.294176,-0.39039 -0.798059,-1.31796 -0.744857,-1.37116 0.0143,-0.0143 0.144008,0.0247 0.28829,0.0867 0.771469,0.33123 1.912393,0.43244 2.702478,0.23973 1.237673,-0.30189 2.239472,-1.01 2.933959,-2.07384 0.830977,-1.27293 1.024822,-2.75819 0.547358,-4.19388 -0.237989,-0.71562 -0.524894,-1.16577 -1.122604,-1.76138 l -0.521724,-0.51987 0.297169,-0.0371 c 0.719806,-0.0899 1.752158,0.0664 2.531624,0.38339 1.669853,0.67907 2.967,2.26947 3.354866,4.11332 0.256757,1.22057 0.08913,2.58693 -0.464343,3.78491 -0.776833,1.68145 -2.255548,2.92764 -4.025777,3.39272 -0.501335,0.13171 -1.783688,0.1881 -2.275988,0.10008 z"
       style="fill:url(#linearGradient2554-9-7);fill-opacity:1;stroke:url(#meshgradient1204);stroke-width:0.05362961;stroke-opacity:0" />
    <flowRoot
       xml:space="preserve"
       id="flowRoot2556-4-8"
       style="font-style:normal;font-weight:normal;font-size:26.66666794px;line-height:1.25;font-family:sans-serif;letter-spacing:0px;word-spacing:0px;fill:#000000;fill-opacity:1;stroke:none"
       transform="matrix(0.15016289,0,0,0.15016289,33.924178,106.07083)"><flowRegion
         id="flowRegion2558-1-3"
         style="font-size:26.66666794px"><rect
           id="rect2560-8-9"
           width="100.71429"
           height="110.71429"
           x="210.35715"
           y="0.26981863"
           style="font-size:26.66666794px" /></flowRegion><flowPara
         id="flowPara2562-4-2">Science</flowPara></flowRoot>    <text
       xml:space="preserve"
       style="font-style:normal;font-weight:normal;font-size:6.33116484px;line-height:1;font-family:sans-serif;letter-spacing:0px;word-spacing:0px;fill:#ffffff;fill-opacity:1;fill-rule:nonzero;stroke:none;stroke-width:0.15827912;paint-order:stroke fill markers"
       x="65.065582"
       y="115.33488"
       id="text2566-5-3"
       transform="scale(1.024994,0.97561547)"><tspan
         sodipodi:role="line"
         x="65.065582"
         y="115.33488"
         style="font-style:normal;font-variant:normal;font-weight:bold;font-stretch:normal;font-size:4.93888903px;line-height:1;font-family:'Noto Sans';-inkscape-font-specification:'Noto Sans Bold';fill:#ffffff;fill-opacity:1;fill-rule:nonzero;stroke-width:0.15827912;paint-order:stroke fill markers"
         id="tspan2568-4-9">SPP Italy 2019</tspan><tspan
         sodipodi:role="line"
         x="65.065582"
         y="121.66604"
         style="font-style:normal;font-variant:normal;font-weight:bold;font-stretch:normal;font-size:2.99861121px;line-height:1;font-family:'Noto Sans';-inkscape-font-specification:'Noto Sans Bold';fill:#ffffff;fill-opacity:1;fill-rule:nonzero;stroke-width:0.15827912;paint-order:stroke fill markers"
         id="tspan2574-9-5">Science | Policy | Public</tspan></text>
  </g>
</svg>
